<svg xmlns="http://www.w3.org/2000/svg" viewBox="0 0 1000 1000"><path d="M556 856H448V745h108v111zm0-386H448v-57h108v57zm0 220H448v-55h108v55zm0-331H448v-55h108v55zm0 220H448v-55h108v55zm0-331H448v-55h108v55zm271 608h-53V745h53v111zm-108 0h-54V745h54v111zm-380 0h-54V745h54v111zm-109 0h-53V745h53v111zm109-166h-54v-55h54v55zm-109 0h-53v-55h53v55zm109-331h-54v-55h54v55zm0 111h-54v-57h54v57zm0 109h-54v-55h54v55zm488 0h-53v-55h53v55zM230 470h-53v-57h53v57zm597 220h-53v-55h53v55zM230 359h-53v-55h53v55zm489 220h-54v-55h54v55zm-489 0h-53v-55h53v55zm489 111h-54v-55h54v55zm-52-220q-24 0-40 16t-17 40V140q0-23-16-41t-40-17H450q-23 0-40 17t-16 41v166q0-23-17-41t-40-17H179q-23 0-40 17t-16 41v604h758V526q0-23-16-40t-40-16H667z"/></svg>