<svg xmlns="http://www.w3.org/2000/svg" viewBox="0 0 1000 1000"><path d="M663 635q-29 0-56-11t-47-28q-28-19-61-54l-25 25q-35 33-67 49-15 10-34 15t-38 4q-56 0-95-40t-39-95 39-96 95-40q30 0 56 12t48 27q27 20 60 53l25-23q34-33 65-49 17-10 36-15t38-5q33 0 63 17t49 45 22 61-9 65q-16 39-50 61t-75 22zM538 499q33 33 55 51 17 11 35 19t35 8q31 0 53-22t23-55-23-55-53-22q-12 0-24 4t-23 10q-23 11-53 39zm-203-76q-23 0-43 14t-27 32-6 38 14 37 33 27q14 6 27 6t26-4 23-10q24-11 53-39l23-23q-31-33-54-51-16-11-34-19t-35-8zm164-322q107 0 200 54t146 145 54 200-54 200-146 145-201 54-200-54-145-145-54-200 54-200 145-145 201-54zm0-58q-125 0-230 61T102 271 41 500t61 229 167 167 230 61 230-61 167-167 61-229-62-229-167-167-229-61z"/></svg>