<svg xmlns="http://www.w3.org/2000/svg" viewBox="0 0 48 48">
  <path d="M16.7 12.6h-1.5L16.7 8h-1.9l-1.7 4.9v3.4h3.6M34.5 16.3l1.7-4.8V8h-3.6v3.8H34l-1.4 4.5M11.1 12.6H9.7L11.1 8H9.3l-1.8 4.9v3.4h3.6M37 23.3c.1-1.3-.9-2.5-2.2-2.5l-8.6-1.1s1.8-3 1.8-7.4C28 9.4 25.9 9 24.6 9c-1 0-1.2 1.9-1.2 1.9-.2 1.2-.5 2.3-1.5 4.2-1.1 2.2-2.7 2-4.5 3.9-.3.3-.7.9-1.2 1.6 0 0-.1.1-.1.2s-.1.1-.1.2c-.1.1-.1.2-.2.4-1.1 1.1-2.8 1-3.6 1-1.5 0-2.2.8-2.2 2.2v10.2c0 1.5.6 2.1 2.3 2.1h2.2c1.1 0 2 .6 3.4 1.1 1.9.6 4.6 1.1 9.4 1.1h3.4c.8 0 1.4-.4 1.9-.8.2-.2.4-.4.4-.9V37c.1-1.3-.8-1.8-1.2-2l1.5.1c1.3.1 2.6-.9 2.6-2.4 0-1.3-1.1-2.2-2.4-2.3h.8c1.3.1 2.4-1 2.5-2.3.1-1.3-1-2.4-2.3-2.5 1.3 0 2.4-1 2.5-2.3zM38.2 8v3.8h1.4l-1.4 4.5H40l1.8-4.8V8"/>
</svg>
