<svg xmlns="http://www.w3.org/2000/svg" viewBox="0 0 1000 1000"><path d="M0 916V178q0-35 24-60t60-24h135V31q0-13 9-22t22-9 22 9 9 22v63h188V31q0-13 9-22t22-9 22 9 9 22v63h188V31q0-13 9-22t22-9 22 9 9 22v63h135q35 0 60 24t24 60v738q0 35-24 60t-60 24H84q-35 0-60-24T0 916zm63 0q0 10 5 16t16 6h832q10 0 16-6t5-16V178q0-10-5-16t-16-6H781v63q0 13-9 22t-22 9-22-9-9-22v-63H531v63q0 13-9 22t-22 9-22-9-9-22v-63H281v63q0 13-9 22t-22 9-22-9-9-22v-63H84q-10 0-16 6t-5 16v738zm156-135v-94h125v94H219zm0-156v-94h125v94H219zm0-156v-94h125v94H219zm219 312v-94h125v94H438zm0-156v-94h125v94H438zm0-156v-94h125v94H438zm218 312v-94h125v94H656zm0-156v-94h125v94H656zm0-156v-94h125v94H656z"/></svg>