<svg xmlns="http://www.w3.org/2000/svg" viewBox="0 0 1000 1000"><path d="M392 938h-6q-60-16-115-49-8-4-11-13t3-16q14-28 10-57t-25-51-52-25-56 10q-7 4-16 2t-15-10q-31-55-47-117-2-8 2-16t12-11q27-8 45-32t17-53-17-53-45-32q-8-4-12-12t-2-15q16-63 47-117 6-8 15-10t16 2q26 14 56 10t52-25 25-51-10-57q-6-7-3-16t11-13q55-33 115-49 10-2 18 2t9 14q10 27 33 44t53 16 53-16 33-44q2-10 10-14t17-2q61 16 115 49 8 4 11 13t-3 16q-14 28-10 57t26 51 51 25 56-10q8-4 16-2t15 10q31 54 47 117 2 8-2 15t-12 12q-27 8-45 32t-17 53 17 53 45 32q8 4 12 11t2 16q-16 62-47 117-6 8-15 10t-16-2q-26-14-56-10t-51 25-26 51 10 57q6 7 3 16t-11 13q-54 33-115 49-10 2-17-2t-10-14q-10-27-33-44t-53-16-53 16-33 44q-6 16-21 16zm107-121q37 0 69 19t50 53q37-12 68-29-11-37-3-74t36-66 66-37 75 5q17-33 27-68-33-18-53-50t-19-70 19-70 53-50q-10-35-27-68-37 12-75 4t-66-36-36-66 3-74q-31-17-68-29-18 33-50 53t-69 19-69-19-50-53q-37 12-68 29 12 37 3 74t-36 66-65 36-76-4q-17 33-27 68 33 18 53 50t19 70-19 70-53 50q10 35 27 68 37-14 76-5t65 37 36 66-3 74q31 17 68 29 18-33 50-53t69-19zm0-182q-56 0-95-40t-39-95 39-96 95-40 96 40 39 96-39 95-96 40zm0-226q-37 0-63 27t-27 64 27 64 63 27 63-27 27-64-27-64-63-27z"/></svg>