<svg xmlns="http://www.w3.org/2000/svg" viewBox="0 0 1000 1000"><path d="M499 99q88 0 168 33t136 92q49 49 73 113t22 134-33 132-87 110l-29 28 13 39q22 52 55 101-18-4-31-8-43-11-80-29l-14-10q-25-17-37-23-19-10-39-10h-6l-8 2q-48 12-101 12-121 0-223-60T129 591q-28-59-30-122t21-122 64-108 99-83q97-57 216-57zm0-58q-132 0-246 64-87 51-144 135T43 421Q31 522 74 616q55 121 176 191 115 66 251 66 59 0 115-13 10 0 43 23l19 14q45 21 92 33 60 15 125 15 31 0 60-3-97-75-138-184 86-74 120-177t10-211-101-187q-66-70-158-106T499 41z"/></svg>