<svg xmlns="http://www.w3.org/2000/svg" viewBox="0 0 1000 1000"><path d="M164 608q0-10 3-18t9-15 23-12l41-17q21-8 27-10 12-6 19-19t6-26q0-8-9-19-8-10-12-22-16-6-16-23 0-14 6-22l-4-27q0-14 6-27t16-25 23-16q29-14 57 0 13 6 24 16t17 25 4 27l-2 27q5 8 5 22 0 17-15 23-4 12-12 22-10 11-10 19 0 14 7 26t19 19q6 4 31 12l37 15q16 6 22 12t9 15 4 18v6H164v-6zm670 119H164v-56h670v56zm0-335H556v-57h278v57zm0 111H556v-57h278v57zm0 111H556v-57h278v57zM111 168q-25 0-43 16t-17 42v554q0 23 17 41t43 17h776q25 0 42-17t16-41V226q0-25-16-42t-42-16H111z"/></svg>