<svg xmlns="http://www.w3.org/2000/svg" viewBox="0 0 1000 1000"><path d="M819 277q-63-63-145-97t-174-34-173 34-145 97-96 145-35 172q0 133 70 244 10 14 27 14h704q17 0 27-14 72-111 72-244 0-89-35-172t-97-145zM554 612q27 18 38 46t3 57q-10 41-45 61t-74 10-60-45-9-74q8-30 32-49t52-22l53-193q2-13 14-20t24-3 19 16 5 23zM275 435q-25 0-45-20t-19-45 19-45 46-19 45 19 18 45-19 45-45 20zm386-65q0-25 19-45t45-19 45 19 20 45-20 45-45 20-45-20-19-45zM179 661q-25 0-44-20t-20-46 20-45 44-20 45 20 20 45-20 46-45 20zm322-451q27-1 46 19t18 46-19 45-46 19-45-19-18-45 18-46 46-19zm322 451q-28 0-46-20t-19-46 20-45 45-20 44 20 20 45-20 46-44 20z"/></svg>