<svg xmlns="http://www.w3.org/2000/svg" viewBox="0 0 48 48">
  <path d="M40.2 17.9c-.1-.2-.4-.3-.7-.2l-14.4 7.9c-.3.2-.5.5-.5.9v15.7c0 .1 0 .2.1.2.1.2.4.3.7.2l14.4-7.9c.3-.2.5-.5.5-.9V18.2c0-.1-.1-.2-.1-.3zM8.8 15.4l4.7 2.7c.3.2.7.2 1 0l14.6-8.3c.1 0 .1-.1.2-.2.1-.2.1-.5-.2-.7l-4.7-2.7c-.3-.2-.7-.2-1 0L8.8 14.6c-.1 0-.1.1-.2.2-.2.2-.1.5.2.6zM39.4 15.3c.1 0 .2-.1.2-.2.1-.2 0-.5-.2-.7l-5.6-3c-.3-.2-.7-.2-.9 0l-14.7 8c-.1 0-.2.1-.2.2-.1.2 0 .5.2.7l5.6 3c.3.2.7.2.9 0l14.7-8zM22 25.6l-5.5-3c-.1 0-.2-.1-.2-.1-.3 0-.5.2-.5.5v2.6c0 .1 0 .2-.1.2-.1.2-.4.4-.7.2l-1.6-.8c-.3-.2-.6-.5-.6-.9v-3.2c0-.4-.2-.7-.5-.9l-4.7-2.6c-.1 0-.2-.1-.2-.1-.3 0-.5.2-.5.5v15.7c0 .4.2.7.5.9l14.4 7.9c.1 0 .2.1.2.1.3 0 .5-.2.5-.5V26.5c.1-.4-.1-.7-.5-.9z"/>
</svg>
