<svg xmlns="http://www.w3.org/2000/svg" viewBox="0 0 48 48">
  <path d="M37.9 7.9H10.2C9 7.9 8 8.9 8 10.1v27.6C8 39 9 40 10.2 40h27.6c1.2 0 2.2-1 2.2-2.2V10.1c.1-1.2-.9-2.2-2.1-2.2zM26.9 35c0 1-.8 1.8-1.8 1.8H12.7c-1 0-1.8-.8-1.8-1.8s.8-1.8 1.8-1.8h12.4c1 .1 1.8.9 1.8 1.8zm8.5-3.7H12.7c-1 0-1.8-.8-1.8-1.8s.8-1.8 1.8-1.8h22.7c1 0 1.8.8 1.8 1.8s-.9 1.8-1.8 1.8zm0-5.5H12.7c-1 0-1.8-.8-1.8-1.8s.8-1.8 1.8-1.8h22.7c1 0 1.8.8 1.8 1.8s-.9 1.8-1.8 1.8zm0-5.5H12.7c-1 0-1.8-.8-1.8-1.8s.8-1.8 1.8-1.8h22.7c1 0 1.8.8 1.8 1.8-.1 1-.9 1.8-1.8 1.8zm0-5.6H12.7c-1 0-1.8-.8-1.8-1.8s.8-1.8 1.8-1.8h22.7c1 0 1.8.8 1.8 1.8-.1 1-.9 1.8-1.8 1.8z"/>
</svg>
