<svg xmlns="http://www.w3.org/2000/svg" viewBox="0 0 48 48">
  <path d="M23 28c-.2.2-.2.6.1.7l4.3 3.6c.1.1.2.1.4.1.3 0 .6-.2.6-.5v-7.1c0-.1-.1-.2-.1-.3-.2-.2-.6-.2-.8-.1L23 28zM18.6 30.2c.1 0 .3 0 .4-.1l4.3-3.6c.3-.2.3-.5.1-.7l-.1-.1-4.3-3.5c-.3-.2-.6-.2-.8.1-.2 0-.2.1-.2.2v7.1c0 .3.2.6.6.6z"/>
  <path d="M39.2 11.7H22.3V8.8c0-1-.8-1.8-1.8-1.8H7.7C6.7 7 6 7.8 6 8.8v27.5c0 1 .8 1.8 1.8 1.8h31.5c1 0 1.8-.8 1.8-1.8V13.5c-.1-1-.9-1.8-1.9-1.8zm-.4 23.6c0 .3-.3.5-.6.5H8.7c-.3 0-.6-.2-.6-.5V19.1h30.7v16.2zm0-18.3H8.1V9.7c0-.3.3-.5.6-.5h11c.3 0 .6.2.6.5v4.6h18c.3 0 .6.2.6.5V17z"/>
</svg>
