<svg xmlns="http://www.w3.org/2000/svg" viewBox="0 0 1000 1000"><path d="M74 949q-10 0-16-6t-7-17V175q0-11 7-18t17-7 18 7 6 18v751q0 10-6 17t-19 6zm101-450q-7 0-15-5t-10-15 6-19q21-29 57-57 68-52 138-52 55 0 107 17 31 10 82 37 43 24 64 32 35 13 71 13 74 0 140-62 51-47 93-125-64 37-135 37t-130-35q-33-19-85-72-49-49-76-64-47-30-108-30-68 0-130 45-33 24-49 45-6 10-17 11t-18-5-10-17 6-18q21-29 58-57 76-52 160-52 74 0 133 33 33 21 86 74 48 47 76 64 46 27 107 27 68 0 130-44 34-24 49-45 6-8 15-10t16 3 12 13 0 17q-6 20-19 51-26 56-59 105-45 68-99 109-69 51-146 51-43 0-86-16-26-7-72-33-49-25-74-35-45-15-92-15-55 0-111 44-29 24-45 45-8 10-20 10z"/></svg>