<svg xmlns="http://www.w3.org/2000/svg" viewBox="0 0 1000 1000"><path d="M344 350c-53 0-94 31-125 69h-63c-9 0-15 6-15 15 0 7 6 13 15 13h47c-6 15-9 31-9 50 0 81 69 150 150 150s147-69 147-150-63-150-147-150zm0 269c-63 0-119-53-119-119 0-63 53-119 119-119 62 0 115 53 115 119 0 62-53 119-115 119zm531-200c9 0 16 6 16 15 0 7-7 13-16 13h-53l6 25c0 9 0 19-12 19-7 0-13 0-16-13-9-56-56-100-112-100-69 0-119 53-119 119 0 62 50 119 115 119 44 0 88-32 104-79 0-6 12-12 21-9 7 0 13 13 10 22-22 62-78 94-138 94-84 0-150-63-150-147v-38c0-18-9-31-25-31h-6c-9 6-19 0-25-6 0-6 0-16 6-22 10-6 19-9 32-9 18 0 31 9 46 25 22-44 69-72 125-72 32 0 63 12 94 37l25 31h72z"/></svg>