<svg xmlns="http://www.w3.org/2000/svg" viewBox="0 0 1000 1000"><path d="M511 641q11 6 21-2l328-269q7-6 7-15t-7-16L532 72q-10-8-22-2t-13 18v140q-171 6-263 88-72 62-97 173-14 63-12 170v15q0 8 4 14t11 8h4q12 0 20-10 52-93 105-138 49-41 107-55 43-10 121-10v139q2 13 14 19zm-345-39q4-119 43-189 78-142 310-144 9 0 15-6t6-15V131l275 224-275 224V462q0-8-6-15t-15-7q-86 2-133 10-64 10-113 43-57 37-107 109zm698 265V489q0-10-6-15t-15-6-14 6-6 15v357H166v-68q0-10-6-16t-15-6-14 6-6 16v89q0 8 6 14t13 6h698q10 0 16-6t6-14z"/></svg>