<svg xmlns="http://www.w3.org/2000/svg" viewBox="0 0 1000 1000"><path d="M908 203H92q-18 0-26-14t0-28 26-13h816q18-2 26 13t0 28-26 14zm0 161H474q-18 2-27-12t0-28 27-14h434q10 2 18 10t8 18-8 19-18 7zm0 164H474q-12 0-19-8t-7-18 7-19 19-9h434q10 2 18 9t8 19-8 18-18 8zm0 164H474q-18 2-27-13t0-29 27-13h434q18-2 26 13t0 29-26 13zm0 164H92q-10-2-18-10t-8-19 8-18 18-8h816q10 0 18 8t8 18-8 19-18 10zM310 692q-10 0-18-6L76 522q-12-7-12-21t12-22l216-163q14-10 30-2t15 23v328q0 17-15 23-6 4-12 4zM137 501l146 109V392z"/></svg>