<svg xmlns="http://www.w3.org/2000/svg" viewBox="0 0 1000 1000"><path d="M906 201H94q-16 0-24-14t0-26 24-13h812q16 0 24 13t0 26-24 14zm0 163H474q-12 0-20-7t-8-20 8-19 20-8h432q16 0 24 14t0 27-24 13zm0 162H474q-12 0-20-8t-8-18 8-19 20-7h432q12 0 20 7t8 19-8 18-20 8zm0 164H474q-12 0-20-8t-8-19 8-20 20-8h432q12 0 20 8t8 20-8 19-20 8zm0 162H94q-12 0-20-8t-8-19 8-18 20-8h812q12 0 20 8t8 18-8 19-20 8zM94 690q-8 0-14-4-14-6-14-23V337q0-17 15-24t28 3l217 162q11 9 11 22t-11 22L109 684q-8 6-15 6zm27-298v216l144-109z"/></svg>