<svg xmlns="http://www.w3.org/2000/svg" viewBox="0 0 1000 1000"><path d="M540 663q-41 0-78-16t-64-45q-10-8-10-18t9-20 19-8 21 7q43 43 103 43t103-43l191-189q43-43 43-104t-43-104-104-43-104 43L482 312q-8 8-20 8t-19-9-8-20 8-18l144-146q39-39 91-54t106-1 91 53 53 91-1 106-54 91L682 602q-29 30-66 45t-76 16zM273 928q-60 0-112-33t-75-90-11-117 56-103l177-178q59-60 142-60t143 60q7 8 7 19t-7 19-19 9-20-8q-43-43-104-43t-103 43L170 624q-43 43-43 103t43 103 103 43 103-43l119-119q10-7 21-7t19 7 9 20-10 19L415 869q-27 30-64 44t-78 15z"/></svg>