<svg xmlns="http://www.w3.org/2000/svg" viewBox="0 0 1000 1000"><path d="M259 286q-11 0-19-7l-72-72q-8-8-8-19t8-19 19-9 20 8l72 72q13 13 6 30t-26 16zm94-29q-12 0-20-8t-7-19V129q0-10 7-19t20-9 19 9 8 19v101q0 12-8 19t-19 8zM230 380H129q-10 0-19-8t-9-19 9-20 19-8h101q12 0 20 8t7 20-7 19-20 8zm579 458q-10 0-19-10l-71-70q-7-8-7-19t7-20 19-8 20 8l71 72q13 12 6 30t-26 17zm-164 59q-11 0-19-9t-8-21v-99q0-12 8-20t19-7 20 7 8 20v99q0 12-8 21t-20 9zm222-225H766q-10 0-18-7t-9-20 9-19 18-8h101q12 0 20 8t8 19-8 20-20 7zm-329-11q-41 0-78-15t-64-44q-8-8-8-19t8-20 19-7 20 7q43 43 103 43t103-43l189-189q43-43 43-103t-43-103-103-43-103 43L480 312q-8 8-20 8t-19-8-8-20 8-19l144-144q58-57 141-57t141 59 59 141-57 141L678 602q-27 30-64 44t-76 15zM273 926q-60 0-111-33t-74-90-12-116 55-102l177-178q59-58 141-58t142 58q7 8 7 20t-7 19-20 8-19-8q-43-43-104-43t-101 43L170 622q-41 43-41 103t42 102 102 43 103-42l119-118q8-8 19-8t19 8 9 19-10 19L413 867q-27 30-64 44t-76 15z"/></svg>