<svg xmlns="http://www.w3.org/2000/svg" viewBox="0 0 1000 1000"><path d="M934 752H250q-10 0-17-6t-7-17 7-17 17-6h684q10 0 15 6t7 17-6 17-16 6zm0-228H250q-10 0-17-7t-7-16 7-17 17-6h684q10 0 15 6t6 17-6 16-15 7zm0-228H250q-10 0-17-7t-7-16 7-17 17-7h684q10 0 15 7t6 17-6 16-15 7zm-821 45q-21 0-39-12t-25-30-4-39 18-35 35-18 40 3 32 26 11 37q0 29-20 49t-48 19zm0-92q-15 0-21 15t5 25 24 5 14-21q0-10-7-17t-15-7zm0 320q-29 0-49-19t-20-48 19-49 49-20 49 20 20 49-20 48-48 19zm0-91q-15 0-21 14t5 25 24 5 14-21q0-10-7-17t-15-6zm0 319q-29 0-49-19t-20-48 19-49 49-20 49 20 20 49-20 48-48 19zm0-91q-15 0-21 14t5 26 24 4 14-21q0-10-7-17t-15-6z"/></svg>