<svg xmlns="http://www.w3.org/2000/svg" viewBox="0 0 1000 1000"><path d="M497 58q121 0 224 61t163 163 60 224-60 224-163 163-225 60-224-60-163-163-60-224 60-224 163-163 225-61zm252 747q66-55 103-134t37-164q0-107-53-197T693 168t-197-53-196 53-142 142-53 197q0 86 36 164t105 134l9 8q71 56 156 75t172 0 156-75zM589 339q9 2 15 13t2 22l-64 258q25 15 35 45t-2 59-40 42-57 7-48-33-17-55 24-53 52-26l65-259q4-12 13-18t22-2zm-65 390v-55h-56v55h56zM189 507h57q0-70 33-128t91-92 127-34 126 34 91 92 35 128h56q0-84-41-157T651 235t-155-42-155 42-113 115-39 157z"/></svg>