<svg xmlns="http://www.w3.org/2000/svg" viewBox="0 0 48 48">
  <ellipse transform="rotate(-13.286 29.862 16.576)" cx="29.9" cy="16.6" rx="7.3" ry="7.3"/>
  <path d="M15.8 26.3c3 0 5.5-2.5 5.5-5.5s-2.5-5.5-5.5-5.5-5.5 2.5-5.5 5.5 2.4 5.5 5.5 5.5zm0-9.2c2 0 3.6 1.6 3.6 3.6s-1.6 3.6-3.6 3.6-3.6-1.6-3.6-3.6 1.6-3.6 3.6-3.6zM41 29.8c-1-1.2-2.3-2.1-3.9-2.8-2-.8-4.4-1.2-7.2-1.2s-5.3.4-7.2 1.2c-1.6.7-2.9 1.6-3.9 2.8-1.8 2-1.8 4.1-1.8 4.2 0 1.5 1.2 2.8 2.8 2.8H40c1.5 0 2.8-1.2 2.8-2.8-.1-.1-.1-2.2-1.8-4.2zM17.7 28.8c0-.5-.4-.9-.9-1h-1c-2 0-3.7.3-5.1.9-1.2.5-2.1 1.3-2.8 2.2-1.2 1.6-1.2 3.2-1.2 3.3 0 1.5 1.2 2.8 2.8 2.8H15c.5 0 .9-.4.9-.9s-.4-.9-.9-.9H9.5c-.5 0-.9-.4-.9-.9 0-.2.2-4.6 7.3-4.6h.9c.5 0 .9-.4.9-.9z"/>
</svg>
