<svg xmlns="http://www.w3.org/2000/svg" viewBox="0 0 48 48">
  <path d="M38.9 9.1c-.1-.1-.3-.1-.4-.2-2.8-.7-5.3-.9-7.5-.9-1.8 0-3.8.5-6 1.3v19.1c0 .8-.7 1.5-1.5 1.5s-1.5-.6-1.5-1.4V8.9c-1.8-.7-3.5-1-5.1-.9-2.1.1-4.4.3-7.1.9-1 .1-1.8 1-1.8 2V31.3c.2 1.1 1.3 1.8 2.4 1.5 2.6-.5 4.8-.9 6.7-1 1.3-.1 2.8.3 4.6 1.1-4.1.2-8.3 1-12.4 2.5-.8.3-1.4 1-1.4 1.9v.7c0 .2 0 .3.1.4.2.7 1 1.1 1.8.9C14.6 37.8 19.3 37 24 37c4.7 0 9.4.8 14.1 2.3.1 0 .3.1.4.1.8 0 1.4-.6 1.4-1.4v-.6c0-.9-.5-1.6-1.4-1.9-4.1-1.4-8.2-2.2-12.3-2.4 1.8-.7 3.3-1.1 4.6-1.1 1.8 0 4 .3 6.5.9 1.1.3 2.2-.4 2.4-1.5 0-.2.1-.4.1-.6V11v-.2c.2-.7-.2-1.4-.9-1.7z"/>
</svg>
