<svg xmlns="http://www.w3.org/2000/svg" viewBox="0 0 1000 1000"><path d="M934 440q-6-7-16-7t-15 7l-51 51q-4-121-80-214T578 156t-227 22-166 157q-4 8-2 17t11 12 18 2 12-11q39-76 113-120t159-44 155 40 112 109 44 151l-51-51q-5-5-14-5t-15 6-7 15 5 16l90 87q6 6 14 6t17-6l88-87q8-8 8-17t-8-15zM801 635q-8-3-16-2t-13 12q-41 76-114 120t-158 44-155-40-112-109-44-151l51 50q6 6 14 6t15-6 7-14-5-17l-90-88q-6-5-14-5t-17 5l-88 88q-5 8-5 16t6 14 15 7 16-6l50-50q4 121 80 214t193 121 227-22 167-157q4-8 2-17t-12-13z"/></svg>