<svg xmlns="http://www.w3.org/2000/svg" viewBox="0 0 48 48">
  <path d="M15.5 37H11v-4.5c0-.8-.7-1.5-1.5-1.5S8 31.7 8 32.5v6c0 .8.7 1.5 1.5 1.5h6c.8 0 1.5-.7 1.5-1.5s-.7-1.5-1.5-1.5zM31.5 22h-15c-.8 0-1.5.7-1.5 1.5s.7 1.5 1.5 1.5h15c.8 0 1.5-.7 1.5-1.5s-.7-1.5-1.5-1.5zM31.5 16h-15c-.8 0-1.5.7-1.5 1.5s.7 1.5 1.5 1.5h15c.8 0 1.5-.7 1.5-1.5s-.7-1.5-1.5-1.5zM9.5 17c.8 0 1.5-.7 1.5-1.5V11h4.5c.8 0 1.5-.7 1.5-1.5S16.3 8 15.5 8h-6C8.7 8 8 8.7 8 9.5v6c0 .8.7 1.5 1.5 1.5zM38.5 8h-6c-.8 0-1.5.7-1.5 1.5s.7 1.5 1.5 1.5H37v4.5c0 .8.7 1.5 1.5 1.5s1.5-.7 1.5-1.5v-6c0-.8-.7-1.5-1.5-1.5zM25.5 28h-9c-.8 0-1.5.7-1.5 1.5s.7 1.5 1.5 1.5h9c.8 0 1.5-.7 1.5-1.5s-.7-1.5-1.5-1.5zM38.5 31c-.8 0-1.5.7-1.5 1.5V37h-4.5c-.8 0-1.5.7-1.5 1.5s.7 1.5 1.5 1.5h6c.8 0 1.5-.7 1.5-1.5v-6c0-.8-.7-1.5-1.5-1.5z"/>
</svg>
