<svg xmlns="http://www.w3.org/2000/svg" viewBox="0 0 1000 1000"><path d="M308 768q2 27-18 46t-46 18-46-19-19-46 19-46 46-19 46 19 18 47zm252 103q0 28-18 46t-46 19-46-19-19-45 19-47 46-19 46 19 18 46zM205 517q0 25-20 43t-46 20-44-19-20-44 20-47 45-19 46 19 19 47zm606 251q0 25-19 45t-45 19-46-18-18-46 19-47 46-18 44 18 19 47zM324 263q0 35-24 59t-56 23-57-23-23-58 23-57 57-24 56 24 24 56zm592 254q0 25-19 43t-46 20-46-19-18-44 18-47 46-19 46 19 19 47zM593 160q0 41-29 69t-69 28-69-28-28-69 28-69 69-29 69 29 29 69zm267 103q0 49-33 81t-80 33-80-33-33-80 34-80 80-34 79 34 33 79z"/></svg>