<svg xmlns="http://www.w3.org/2000/svg" viewBox="0 0 48 48">
  <path d="M12.1 15.5l2.5 2.5c.2.2.4.3.7.3s.5-.1.7-.3c.4-.4.4-1 0-1.4l-2.5-2.5 2.5-2.5c.4-.4.4-1 0-1.4-.4-.4-1-.4-1.4 0l-2.5 2.5-2.5-2.5c-.4-.4-1-.4-1.4 0-.4.4-.4 1 0 1.4l2.5 2.5-2.5 2.5c-.4.4-.4 1 0 1.4.2.2.4.3.7.3s.5-.1.7-.3l2.5-2.5zM12.1 30.6C10.4 30.6 9 32 9 33.7s1.4 3.1 3.1 3.1 3.1-1.4 3.1-3.1-1.4-3.1-3.1-3.1zM36.9 14.1c-1.7 0-3.1 1.4-3.1 3.1s1.4 3.1 3.1 3.1c1.7 0 3.1-1.4 3.1-3.1 0-1.7-1.4-3.1-3.1-3.1zM24.5 20.2c-.4.4-.3 1.1.1 1.5.2.2.4.3.6.3.3 0 .6-.1.7-.4l3.5-4.2c.4-.4.3-1.1-.1-1.5l-4-3.6c-.4-.4-1-.3-1.4.1-.4.4-.3 1.1.1 1.5l2.1 1.9c-6.3.9-10 4.3-12 7.2-1.9 2.7-2.7 5.3-3 6.5h.6c.5 0 1 .1 1.4.2.3-1.1 1.1-3.3 2.7-5.5 2.6-3.6 6.2-5.7 10.7-6.3l-2 2.3zM29.4 30.9c-.4-.4-1-.4-1.4 0l-2.5 2.5-2.5-2.5c-.4-.4-1-.4-1.4 0-.4.4-.4 1 0 1.4l2.5 2.5-2.5 2.5c-.4.4-.4 1 0 1.4.2.2.4.3.7.3.2 0 .5-.1.7-.3l2.5-2.5 2.5 2.5c.2.2.4.3.7.3s.5-.1.7-.3c.4-.4.4-1 0-1.4l-2.5-2.5 2.5-2.5c.4-.4.4-1 0-1.4z"/>
</svg>
