<svg id="Layer_1" xmlns="http://www.w3.org/2000/svg" viewBox="0 0 48 48" enable-background="new 0 0 48 48">
  <style>
    .st0{fill:#808080;fill-opacity:0;} .st1{fill:#474F59;} .st2{filter:url(#Adobe_OpacityMaskFilter);} .st3{fill:#FFFFFF;} .st4{mask:url(#mask-2_1_);} .st5{fill:#00A1FF;}
  </style>
  <g id="Symbols">
    <g id="Icon-Set-Task-_x2F_-Internal-_x2F_-Production">
      <path id="icn-frame" class="st0" d="M0 0h48v48H0z"/>
      <g id="Shape">
        <path id="path-1_1_" class="st1" d="M33.5 27.6c-.6 0-1.1.2-1.6.2l-4.6-4.5 3.8-3.8 4.9-1.7 3.7-5.8c.2-.3.2-.8 0-.9l-1.9-1.9c-.3-.4-.8-.4-1.1-.2l-6.1 3.4-1.9 5-3.8 3.8-4.3-4.5c0-.5.2-.9.2-1.6 0-4.1-4-7-8-6.1l2.4 2.3c1.3 1.3 1.3 3.1 0 4.4s-3.2 1.3-4.5 0l-2.5-2.2c-1.3 4.5 3 8.9 7.8 7.5l4.6 4.5-1.9 1.9c-1.1-.3-2.2 0-3 .8l-6.5 6.4c-1.3 1.3-1.4 3.1-.3 4.4 1.3 1.4 3.3 1.4 4.6.2l6.7-6.6c.8-.8 1.1-2 .8-3l1.9-1.9 4.6 4.5c-.2.5-.2 1.1-.2 1.6 0 4.1 4 7 8 6.1l-2.4-2.3c-1.3-1.3-1.3-3.1 0-4.4 1.3-1.3 3.2-1.3 4.5 0l2.4 2.3c1-3.9-2.1-7.9-6.3-7.9z"/>
      </g>
      <defs>
        <filter id="Adobe_OpacityMaskFilter" filterUnits="userSpaceOnUse" x="0" y="0" width="48" height="48">
          <feColorMatrix values="1 0 0 0 0 0 1 0 0 0 0 0 1 0 0 0 0 0 1 0"/>
        </filter>
      </defs>
      <mask maskUnits="userSpaceOnUse" x="0" y="0" width="48" height="48" id="mask-2_1_">
        <g class="st2">
          <path id="path-1_2_" class="st3" d="M33.5 27.6c-.6 0-1.1.2-1.6.2l-4.6-4.5 3.8-3.8 4.9-1.7 3.7-5.8c.2-.3.2-.8 0-.9l-1.9-1.9c-.3-.4-.8-.4-1.1-.2l-6.1 3.4-1.9 5-3.8 3.8-4.3-4.5c0-.5.2-.9.2-1.6 0-4.1-4-7-8-6.1l2.4 2.3c1.3 1.3 1.3 3.1 0 4.4s-3.2 1.3-4.5 0l-2.5-2.2c-1.3 4.5 3 8.9 7.8 7.5l4.6 4.5-1.9 1.9c-1.1-.3-2.2 0-3 .8l-6.5 6.4c-1.3 1.3-1.4 3.1-.3 4.4 1.3 1.4 3.3 1.4 4.6.2l6.7-6.6c.8-.8 1.1-2 .8-3l1.9-1.9 4.6 4.5c-.2.5-.2 1.1-.2 1.6 0 4.1 4 7 8 6.1l-2.4-2.3c-1.3-1.3-1.3-3.1 0-4.4 1.3-1.3 3.2-1.3 4.5 0l2.4 2.3c1-3.9-2.1-7.9-6.3-7.9z"/>
        </g>
      </mask>
      <g id="Color-_x2F_-Cool-_x2F_-Blue" class="st4">
        <g id="bg">
          <path id="path-3" class="st5" d="M0 0h48v48H0z"/>
          <path d="M0 0h48v48H0z"/>
        </g>
      </g>
    </g>
  </g>
</svg>
