<svg xmlns="http://www.w3.org/2000/svg" viewBox="0 0 1042 1000"><path d="M48 838l310-310 134 133-310 311c-19 19-43 28-67 28s-49-9-67-28c-37-37-37-96 0-134zm763-561L643 444l-67-67 167-168 71-137L953 0l67 67-72 139-137 71zm34 349c98 7 175 87 175 186 0 29-7 56-19 81L877 768c-7-6-14-11-23-14-7-2-14-4-21-4-16 0-33 6-45 18-18 18-22 44-14 66 3 8 8 16 14 23l125 124c-24 12-52 19-80 19-100 0-180-77-187-175l-1-13c0-22 5-44 12-64L272 363c-20 7-42 12-64 12l-13-1c-98-7-175-87-175-187 0-28 7-55 19-80l124 125c7 6 15 11 23 14 7 2 14 4 22 4 16 0 32-6 44-18 18-18 22-44 14-66-3-8-8-16-14-23L127 19c25-12 52-19 81-19 99 0 179 77 186 175l1 12c0 23-5 45-12 65l385 385c20-7 42-12 65-12l12 1z"/></svg>