<svg xmlns="http://www.w3.org/2000/svg" viewBox="0 0 1000 1000"><path d="M791 136H632v-21q0-29-20-49t-49-19h-91q-28 0-48 19t-20 49v21H244q-28 0-48 21t-21 48v46q0 22 13 39t34 26v573q0 29 20 49t48 19h457q27 0 47-19t21-49V316q19-8 32-26t13-39v-46q0-28-20-48t-49-21zm-341-21q0-10 7-17t15-6h91q10 0 17 6t7 17v21H450v-21zm318 774q0 10-7 17t-14 6H632V472q0-10-7-17t-16-7-15 7-7 17v440h-92V472q0-10-7-17t-15-7-16 7-7 17v440h-91V472q0-10-7-17t-17-7-15 7-6 17v440h-24q-9 0-16-6t-7-17V320h501v569zm47-638q0 10-7 17t-17 7H244q-8 0-15-7t-7-17v-46q0-8 7-15t15-7h547q10 0 17 7t7 15v46z"/></svg>