<svg xmlns="http://www.w3.org/2000/svg" viewBox="0 0 1000 1000"><path d="M228 782q-66 0-119-41T42 634t15-125 89-90v-21q0-73 51-123t123-51q56 0 101 33 23-39 62-66 59-41 129-41 63 0 114 31t83 83 31 114q0 16-4 33 63 24 96 81t23 124-57 112-114 52q-10 2-219 2h-29V616q0-22 16-38t39-17h27L507 415 396 559h27q23 0 40 17t17 40v166H228zm92-499q-49 0-82 34t-33 81q0 17 4 31l7 27-27 10q-47 13-73 55t-18 90 44 80 86 32h193V618h-58q-30 0-40-23t6-45l139-180q15-19 39-19h2q23 0 39 19l136 180q18 23 7 45t-40 23l-56 2v103q169 0 183-2 49-4 83-39t37-84-26-88-77-52l-29-6 8-29q8-23 8-45 0-62-39-109t-99-58-113 19-75 86l-17 47-32-38q-35-42-87-42zm456 438zm2 0z"/></svg>