<svg xmlns="http://www.w3.org/2000/svg" width="100" height="80" viewBox="0 0 100 80">
  <g fill="none" fill-rule="evenodd">
    <rect width="95.652" height="58.696" x="2.174" y="19.565" stroke="#FFF" stroke-width="4.348" rx="5.435"/>
    <circle cx="75.543" cy="36.413" r="5.978" fill="#FFF"/>
    <path stroke="#FFF" stroke-width="4.348" d="M97.6727041,19.1944496 L97.6727041,11.8045677 C97.5303947,11.6168517 97.2951909,11.3607628 96.969889,11.0555709 C96.2163538,10.3486186 95.4588619,10.0314626 94.605753,10.0314626 L33.5708051,10.0314626 L32.9192915,9.25685795 C31.8346114,7.96724842 30.5907675,6.46183171 29.1873167,4.74012747 C27.3846282,2.52865233 26.8683622,2.17373722 25.8486667,2.17373722 C24.2137623,2.17373722 24.2137623,2.17373722 19.8317987,2.17373722 C14.1029082,2.17373722 14.0764283,2.17373722 5.6911097,2.17373722 C4.52974744,2.30770597 3.74767345,2.66364252 3.24892751,3.20877689 C2.68507496,3.82507345 2.36548875,4.51288842 2.26385215,5.32965885 L2.26385215,19.1944496 L97.6727041,19.1944496 Z"/>
    <polyline stroke="#FFF" stroke-linecap="round" stroke-linejoin="round" stroke-width="4.348" points="15.42 63.04 38.92 40.452 57.978 58.061 50.491 64.745 67.365 49.823 84.505 64.745"/>
  </g>
</svg>
