<svg xmlns="http://www.w3.org/2000/svg" width="100" height="80" viewBox="0 0 100 80">
  <g fill="none" fill-rule="evenodd">
    <rect width="95.652" height="58.652" x="2.174" y="19.174" stroke="#291E2E" stroke-width="4.348" rx="5.435"/>
    <circle cx="76" cy="36" r="6" fill="#291E2E"/>
    <path stroke="#291E2E" stroke-width="4.348" d="M97.7729697,18.826087 L97.7729697,11.625085 C97.6308878,11.4439969 97.3998697,11.1984073 97.0828338,10.9066564 C96.3263822,10.2105352 95.5607958,9.89611795 94.6960259,9.89611795 L33.5592013,9.89611795 L32.9085213,9.13729368 C31.8216744,7.86981074 30.5753681,6.39024977 29.1691539,4.69813411 C27.3622972,2.5239202 26.8432478,2.17391304 25.8078414,2.17391304 C24.1698198,2.17391304 24.1698198,2.17391304 19.7795011,2.17391304 C14.0390943,2.17391304 14.0131516,2.17391304 5.60924557,2.17391304 C4.43736237,2.30613484 3.647593,2.65840308 3.1477618,3.19427964 C2.58956614,3.79272961 2.27466167,4.45619326 2.17391304,5.2428696 L2.17391304,18.826087 L97.7729697,18.826087 Z"/>
    <polyline stroke="#291E2E" stroke-linecap="round" stroke-linejoin="round" stroke-width="4.348" points="15 62.315 38.471 40 57.506 57.397 50.028 64 66.881 49.258 84 64"/>
  </g>
</svg>
