<?xml version="1.0" encoding="UTF-8"?>
<svg width="313px" height="158px" viewBox="0 0 313 158" version="1.1" xmlns="http://www.w3.org/2000/svg" xmlns:xlink="http://www.w3.org/1999/xlink">
    <!-- Generator: Sketch 47.1 (45422) - http://www.bohemiancoding.com/sketch -->
    <title>tree</title>
    <desc>Created with Sketch.</desc>
    <defs></defs>
    <g id="Page-1" stroke="none" stroke-width="1" fill="none" fill-rule="evenodd" stroke-linecap="round">
        <g id="other-stuff" transform="translate(-31.000000, -325.000000)" stroke="#291E2E" stroke-width="2">
            <g id="tree" transform="translate(31.000000, 325.000000)">
                <path d="M155.5,52.5 L155.5,86.5" id="Line-3"></path>
                <path d="M205.901701,3.5 L298.5,3.5" id="Line-21"></path>
                <path d="M298.5,3.5 L311.5,41.5" id="Line-4"></path>
                <path d="M311.5,41.5 L311.5,126.769535" id="Line-5"></path>
                <path d="M255.5,48.5 L237.5,62.5" id="Line-10"></path>
                <path d="M237.5,62.5 L237.5,77.4285528" id="Line-11"></path>
                <path d="M255.5,48.5 L276.5,56.5" id="Line-12"></path>
                <path d="M276.5,56.5 L276.5,110.5" id="Line-13"></path>
                <path d="M117.5,89.5 L104.5,99.5" id="Line-6"></path>
                <path d="M117.5,89.5 L136.5,114.5" id="Line-7"></path>
                <path d="M136.5,114.5 L136.5,156.5" id="Line-8"></path>
                <path d="M104.5,99.5 L104.5,136.5" id="Line-9"></path>
                <path d="M95.9724271,1.5 L33.5,1.5" id="Line-8"></path>
                <path d="M33.5,1.5 L1.5,81.5" id="Line-9"></path>
                <path d="M17.5,42.5 L38.5,64.5" id="Line-10"></path>
                <path d="M38.5,64.5 L38.5,109.5" id="Line-11"></path>
                <path d="M1.5,81.5 L1.5,144.5" id="Line-12"></path>
                <path d="M104.5,28.5 L75.5,54.5" id="Line-13"></path>
                <path d="M75.5,54.5 L75.5,83.5" id="Line-14"></path>
                <path d="M130.093403,48.5 L117.5,73.5" id="Line-15"></path>
                <path d="M117.5,73.5 L117.5,89.5" id="Line-16"></path>
                <path d="M187.531533,38.5 L212.5,64.5" id="Line-17"></path>
                <path d="M212.5,64.5 L212.5,136.5" id="Line-18"></path>
                <path d="M204.196345,15.3296246 L255.5,28.5" id="Line-19"></path>
                <path d="M255.5,28.5 L255.5,48.5" id="Line-20"></path>
            </g>
        </g>
    </g>
</svg>