<?xml version="1.0" encoding="UTF-8" standalone="no"?>
<svg
   xmlns:dc="http://purl.org/dc/elements/1.1/"
   xmlns:cc="http://creativecommons.org/ns#"
   xmlns:rdf="http://www.w3.org/1999/02/22-rdf-syntax-ns#"
   xmlns:svg="http://www.w3.org/2000/svg"
   xmlns="http://www.w3.org/2000/svg"
   xmlns:sodipodi="http://sodipodi.sourceforge.net/DTD/sodipodi-0.dtd"
   xmlns:inkscape="http://www.inkscape.org/namespaces/inkscape"
   width="104px"
   height="144px"
   viewBox="0 0 104 144"
   version="1.1"
   id="svg86"
   sodipodi:docname="graph-tree-circle.svg"
   inkscape:version="0.92.2 5c3e80d, 2017-08-06">
  <metadata
     id="metadata90">
    <rdf:RDF>
      <cc:Work
         rdf:about="">
        <dc:format>image/svg+xml</dc:format>
        <dc:type
           rdf:resource="http://purl.org/dc/dcmitype/StillImage" />
        <dc:title>graph-tree-circle</dc:title>
      </cc:Work>
    </rdf:RDF>
  </metadata>
  <sodipodi:namedview
     pagecolor="#ffffff"
     bordercolor="#666666"
     borderopacity="1"
     objecttolerance="10"
     gridtolerance="10"
     guidetolerance="10"
     inkscape:pageopacity="0"
     inkscape:pageshadow="2"
     inkscape:window-width="838"
     inkscape:window-height="480"
     id="namedview88"
     showgrid="false"
     inkscape:zoom="1.6388889"
     inkscape:cx="52"
     inkscape:cy="72"
     inkscape:window-x="756"
     inkscape:window-y="276"
     inkscape:window-maximized="0"
     inkscape:current-layer="svg86" />
  <!-- Generator: Sketch 47.1 (45422) - http://www.bohemiancoding.com/sketch -->
  <title
     id="title2">graph-tree-circle</title>
  <desc
     id="desc4">Created with Sketch.</desc>
  <defs
     id="defs6" />
  <g
     id="Page-1"
     stroke="none"
     stroke-width="1"
     fill="none"
     fill-rule="evenodd">
    <g
       id="other-stuff"
       transform="translate(-208.000000, -236.000000)">
      <g
         id="graph-tree-circle"
         transform="translate(109.000000, 218.000000)">
        <g
           id="tree"
           transform="translate(0.000000, 74.000000)"
           stroke="#291E2E"
           stroke-width="2"
           stroke-linecap="round">
          <path
             d="M155.5,52.5 L155.5,86.5"
             id="Line-3" />
        </g>
        <g
           id="circle-thing"
           transform="translate(82.000000, 0.000000)">
          <g
             id="brokenCircle"
             transform="translate(19.000000, 20.000000)"
             stroke="#291E2E"
             stroke-width="3"
             stroke-linecap="round">
            <path
               d="M57.6947408,99.4115613 C76.6399392,96.4852512 92.0737599,82.9238716 97.7051964,65.018429"
               id="Oval-2" />
            <path
               d="M25.8327744,100 C34.5982508,100 42.83691,97.7444273 50,93.7820338"
               id="Oval-2-Copy"
               transform="translate(37.916387, 96.891017) scale(-1, 1) translate(-37.916387, -96.891017) " />
            <path
               d="M11.5266358,88.7746105 C14.0426829,86.7235638 16.3553282,84.4325047 18.4296604,81.9363441"
               id="path12"
               transform="translate(14.978148, 85.355477) scale(-1, 1) translate(-14.978148, -85.355477) " />
            <path
               d="M0.31896796,73.7989365 C3.30090077,68.2995265 5.28151707,62.1780496 6.01625953,55.6790632"
               id="path14"
               transform="translate(3.167614, 64.739000) scale(-1, 1) translate(-3.167614, -64.739000) " />
            <path
               d="M100,29.786967 C97.2650306,35.9676235 95.7458907,42.8064047 95.7458907,50"
               id="Oval-2-Copy-2"
               transform="translate(97.872945, 39.893483) scale(-1, 1) translate(-97.872945, -39.893483) " />
            <path
               d="M91.4881306,0.369713825 C76.7649672,2.16387798 64.0173861,10.3575623 56.1111104,22.0850436"
               id="Oval-2-Copy-4"
               transform="translate(73.799621, 11.227379) scale(-1, 1) translate(-73.799621, -11.227379) " />
            <path
               d="M50,0 C46.1353837,0 42.3731725,0.438448458 38.7603957,1.26831606"
               id="Oval-2-Copy-3" />
            <path
               d="M33.0096466,2.96076473 C25.394982,5.71164751 18.6395462,10.2588984 13.2550117,16.0908447 C8.17262529,21.595537 4.31160331,28.2447909 2.10222548,35.6083269"
               id="path19" />
            <path
               d="M0.526876482,42.7150893 C0.179740186,45.0931829 0,47.5256012 0,50"
               id="path21" />
          </g>
          <g
             id="little-circles"
             transform="translate(27.000000, 28.000000)"
             fill="#291E2E">
            <g
               id="0deg">
              <circle
                 id="Oval-5"
                 cx="83"
                 cy="42"
                 r="1" />
              <circle
                 id="circle25"
                 cx="1"
                 cy="42"
                 r="1" />
              <ellipse
                 id="ellipse27"
                 cx="42"
                 cy="0.989361702"
                 rx="1"
                 ry="1" />
              <ellipse
                 id="ellipse29"
                 cx="42"
                 cy="82.9893617"
                 rx="1"
                 ry="1" />
            </g>
            <g
               id="15deg"
               transform="translate(42.000000, 42.000000) rotate(15.000000) translate(-42.000000, -42.000000) ">
              <circle
                 id="circle32"
                 cx="83"
                 cy="42"
                 r="1" />
              <circle
                 id="circle34"
                 cx="1"
                 cy="42"
                 r="1" />
              <ellipse
                 id="ellipse36"
                 cx="42"
                 cy="0.989361702"
                 rx="1"
                 ry="1" />
              <ellipse
                 id="ellipse38"
                 cx="42"
                 cy="82.9893617"
                 rx="1"
                 ry="1" />
            </g>
            <g
               id="30deg"
               transform="translate(42.000000, 42.000000) rotate(30.000000) translate(-42.000000, -42.000000) ">
              <circle
                 id="circle41"
                 cx="83"
                 cy="42"
                 r="1" />
              <circle
                 id="circle43"
                 cx="1"
                 cy="42"
                 r="1" />
              <ellipse
                 id="ellipse45"
                 cx="42"
                 cy="0.989361702"
                 rx="1"
                 ry="1" />
              <ellipse
                 id="ellipse47"
                 cx="42"
                 cy="82.9893617"
                 rx="1"
                 ry="1" />
            </g>
            <g
               id="45deg"
               transform="translate(42.000000, 42.000000) rotate(45.000000) translate(-42.000000, -42.000000) ">
              <circle
                 id="circle50"
                 cx="83"
                 cy="42"
                 r="1" />
              <circle
                 id="circle52"
                 cx="1"
                 cy="42"
                 r="1" />
              <ellipse
                 id="ellipse54"
                 cx="42"
                 cy="0.989361702"
                 rx="1"
                 ry="1" />
              <ellipse
                 id="ellipse56"
                 cx="42"
                 cy="82.9893617"
                 rx="1"
                 ry="1" />
            </g>
            <g
               id="60deg"
               transform="translate(42.000000, 42.000000) rotate(60.000000) translate(-42.000000, -42.000000) ">
              <circle
                 id="circle59"
                 cx="83"
                 cy="42"
                 r="1" />
              <circle
                 id="circle61"
                 cx="1"
                 cy="42"
                 r="1" />
              <ellipse
                 id="ellipse63"
                 cx="42"
                 cy="0.989361702"
                 rx="1"
                 ry="1" />
              <ellipse
                 id="ellipse65"
                 cx="42"
                 cy="82.9893617"
                 rx="1"
                 ry="1" />
            </g>
            <g
               id="75deg"
               transform="translate(42.000000, 42.000000) rotate(75.000000) translate(-42.000000, -42.000000) ">
              <circle
                 id="circle68"
                 cx="83"
                 cy="42"
                 r="1" />
              <circle
                 id="circle70"
                 cx="1"
                 cy="42"
                 r="1" />
              <ellipse
                 id="ellipse72"
                 cx="42"
                 cy="0.989361702"
                 rx="1"
                 ry="1" />
              <ellipse
                 id="ellipse74"
                 cx="42"
                 cy="82.9893617"
                 rx="1"
                 ry="1" />
            </g>
          </g>
          <g
             id="Group-3"
             transform="translate(32.000000, 33.000000)">
            <circle
               id="Oval-4"
               fill="#291E2E"
               cx="37.0526316"
               cy="37.0526316"
               r="25.0526316" />
            <circle
               id="Oval"
               stroke="#42525A"
               stroke-width="5"
               cx="37"
               cy="37"
               r="28" />
            <circle
               id="Oval-6"
               stroke="#253E6D"
               cx="37.5"
               cy="37.5"
               r="37.5" />
          </g>
        </g>
      </g>
    </g>
  </g>
</svg>
