<?xml version="1.0" encoding="UTF-8"?>
<svg width="469px" height="112px" viewBox="0 0 469 112" version="1.1" xmlns="http://www.w3.org/2000/svg" xmlns:xlink="http://www.w3.org/1999/xlink">
    <!-- Generator: Sketch 47.1 (45422) - http://www.bohemiancoding.com/sketch -->
    <title>Group 2</title>
    <desc>Created with Sketch.</desc>
    <defs></defs>
    <g id="Page-1" stroke="none" stroke-width="1" fill="none" fill-rule="evenodd">
        <g id="Body" transform="translate(-38.000000, -32.000000)">
            <g id="Group-2" transform="translate(-122.000000, -133.000000)">
                <g id="Light-Small">
                    <g id="Light" transform="translate(160.374707, 165.375000)">
                        <g id="Circle-thingy">
                            <path d="M72.3081657,33.8267045 C71.5114207,36.3070081 71.0817698,38.9472298 71.0817698,41.6859603 C71.0817698,48.6389057 73.8509729,54.9569373 78.3657674,59.6352273" id="Oval-2" stroke="#25282B" stroke-width="0.75" transform="translate(74.723769, 46.730966) rotate(180.000000) translate(-74.723769, -46.730966) "></path>
                            <path d="M61.7883935,77.6761364 C60.6357057,64.3396512 49.3722423,53.8721591 35.6475428,53.8721591 C32.2873933,53.8721591 29.0747684,54.499573 26.1219225,55.6428958" id="Oval-2" stroke="#25282B" stroke-width="0.75" transform="translate(43.955158, 65.774148) rotate(180.000000) translate(-43.955158, -65.774148) "></path>
                            <path d="M33.4059201,33.3255682 C40.3774188,33.0957996 46.6622556,30.1679259 51.2391556,25.5579545" id="Oval-2" stroke="#25282B" stroke-width="0.75" transform="translate(42.322538, 29.441761) rotate(180.000000) translate(-42.322538, -29.441761) "></path>
                            <path d="M52.2438449,67.4028409 C43.6432887,67.4028409 36.6711604,60.4474828 36.6711604,51.8676136 C36.6711604,43.2877445 43.6432887,36.3323864 52.2438449,36.3323864 C60.8444011,36.3323864 67.8165295,43.2877445 67.8165295,51.8676136 C67.8165295,60.4474828 60.8444011,67.4028409 52.2438449,67.4028409 Z M52.2438449,67.265361 C60.76829,67.265361 67.6787181,60.3715547 67.6787181,51.8676136 C67.6787181,43.3636726 60.76829,36.4698663 52.2438449,36.4698663 C43.7193998,36.4698663 36.8089717,43.3636726 36.8089717,51.8676136 C36.8089717,60.3715547 43.7193998,67.265361 52.2438449,67.265361 Z" id="Oval"></path>
                            <path d="M29.994515,30.0681818 C24.4890805,35.6759516 21.0984758,43.3323453 21.0984758,51.773354 C21.0984758,52.6565925 21.135599,53.5312405 21.2083836,54.3958497 C21.9745644,63.4973135 26.6924343,71.4863775 33.6570924,76.6738636" id="Oval-3" stroke="#25282B" stroke-width="1.25"></path>
                            <path d="M63.2660079,80.9335227 C72.1091717,77.5965519 79.0310746,70.3565859 81.9211222,61.3197754 C82.8745872,58.3384121 83.389214,55.1614754 83.389214,51.8645941 C83.389214,43.5879264 80.1458416,36.0671939 74.8582112,30.4989861 C69.1842399,24.5239372 61.1563696,20.7971591 52.2562272,20.7971591 C51.8314384,20.7971591 51.4086368,20.8056487 50.9879833,20.822467" id="Oval-3" stroke="#25282B" stroke-width="1.25"></path>
                            <path d="M84.3113513,62.1409091 C85.3436995,58.9131149 85.9009373,55.4733252 85.9009373,51.9035596 C85.9009373,42.974457 82.4145376,34.8585575 76.7270345,28.839439 C70.5903231,22.3449206 61.8910841,18.2914773 52.2438449,18.2914773 C51.7720571,18.2914773 51.3025365,18.3011714 50.835472,18.3203713 C41.91612,18.6870223 33.892447,22.5201862 28.0795136,28.5065606 C22.203732,34.5576583 18.5867525,42.8087784 18.5867525,51.9035596 C18.5867525,52.9260231 18.6324674,53.9378237 18.7219672,54.937034" id="Oval-3" stroke="#25282B" stroke-width="0.5"></path>
                            <path d="M32.1500584,23.8039773 C33.1317672,24.7934224 34.1873265,25.7101252 35.3078375,26.5452298 C39.7114312,29.8271797 45.1181915,31.8488598 50.9879833,32.0727273" id="Oval-3" stroke="#25282B" stroke-width="0.5" transform="translate(41.569021, 27.938352) scale(-1, 1) rotate(-180.000000) translate(-41.569021, -27.938352) "></path>
                            <path d="M79.1192844,73.6704972 C77.8234038,69.6044102 75.6178768,65.9397363 72.7398028,62.9118364 C69.8733391,59.8961511 66.3397437,57.5121128 62.3732581,55.9922452 C59.2220294,54.7847658 55.7975722,54.1227273 52.2173456,54.1227273 C51.8914618,54.1227273 51.5668687,54.1282124 51.2436547,54.1390946 C45.2890484,54.3395814 39.8025462,56.3719391 35.3380484,59.6863294 C34.1888534,60.5394782 33.107375,61.4775725 32.1030602,62.4912348 C27.6351683,67.0007106 24.694413,73.0057435 24.1125438,79.6806818" id="Oval-3" stroke="#25282B" stroke-width="0.5" transform="translate(51.615914, 66.901705) scale(-1, 1) rotate(-180.000000) translate(-51.615914, -66.901705) "></path>
                            <path d="M51.7200057,71.4119318 C62.4602609,71.1361771 71.0817698,62.3807693 71.0817698,51.6203944 C71.0817698,46.3203601 68.9901351,41.506744 65.5839205,37.9532461 C61.9629266,34.1756814 56.8563438,31.8221591 51.1976827,31.8221591 C50.9880624,31.8221591 50.7791997,31.8253887 50.571142,31.8318009 C41.8546341,32.1004329 34.5511289,37.9547278 32.1500584,45.9203194" id="Oval-4" stroke="#25282B" stroke-width="1.75" transform="translate(51.615914, 51.617045) rotate(180.000000) translate(-51.615914, -51.617045) "></path>
                            <path d="M67.0630125,94.9653409 C59.8866315,89.6112774 51.0109507,86.4460227 41.4030649,86.4460227 C36.1178489,86.4460227 31.0541986,87.4038307 26.3730948,89.1569095" id="Oval-5" stroke="#25282B" stroke-width="0.75" transform="translate(46.718054, 90.705682) rotate(180.000000) translate(-46.718054, -90.705682) "></path>
                            <path d="M20.8473035,21.7994318 C32.4952845,21.3243569 42.9601516,16.3190944 50.4856386,8.51931818" id="Oval-5" stroke="#25282B" stroke-width="0.75" transform="translate(35.666471, 15.159375) rotate(180.000000) translate(-35.666471, -15.159375) "></path>
                            <path d="M73.5934931,110.25 L57.5184639,64.6465909" id="Line" stroke="#25282B" stroke-width="1.25" stroke-linecap="square"></path>
                            <polyline id="Line" stroke="#25282B" stroke-width="0.5" stroke-linecap="square" points="18.0844079 97.9721591 44.2155449 62.2489561 45.2110196 60.8880682"></polyline>
                            <path d="M0,57.1295455 L40.6899177,52.1181818" id="Line" stroke="#25282B" stroke-linecap="square"></path>
                            <path d="M107.250585,70.1590909 L67.0630125,55.8767045" id="Line" stroke="#25282B" stroke-linecap="square"></path>
                            <path d="M84.896248,21.2982955 L64.0489445,40.3414773" id="Line" stroke="#25282B" stroke-width="1.25" stroke-linecap="square"></path>
                            <path d="M4.0187573,6.76534091 L43.4528133,42.5965909" id="Line" stroke="#25282B" stroke-width="1.75" stroke-linecap="square"></path>
                            <path d="M49.7321216,0 L52.2438449,41.0931818" id="Line" stroke="#25282B" stroke-linecap="square"></path>
                        </g>
                        <g id="Initials" transform="translate(47.471571, 43.097727)" fill-rule="nonzero" fill="#25282B">
                            <path d="M0.104110487,18.2320568 L0.104110487,16.365375 C1.52192756,17.1184333 2.71084154,17.4949569 3.67088807,17.4949569 C4.17316408,17.4949569 4.63092775,17.3976351 5.0441928,17.2029887 C5.45745787,17.0083422 5.78647551,16.6796819 6.0312556,16.2169978 C6.27603567,15.7543137 6.39842387,14.7667371 6.39842387,13.2542386 L6.39842387,4.86852954 L1.17621008,4.86852954 L1.17621008,3.33689318 L8.37254943,3.33689318 L8.37254943,13.3021023 C8.37254943,14.929474 8.1881724,16.0989306 7.81941281,16.8105068 C7.45065321,17.5220832 6.93407961,18.0693186 6.26967656,18.4522295 C5.60527348,18.8351406 5.27467159,18.808514 4.23832996,18.808514 C3.39832147,18.808514 2.9411409,18.8043136 2.05167361,18.5171242 C1.94963964,18.4841796 1.42267981,18.5022058 1.26545142,18.4522295 C1.19354789,18.4293744 0.884280333,18.3020607 0.829472008,18.2909162 C0.774663685,18.2797717 0.594681564,18.3923494 0.563337959,18.4036585 C0.531994353,18.4149675 0.255789821,18.2962029 0.104110487,18.2320568 Z" id="J"></path>
                            <path d="M16.7880295,14.6676669 C16.7880295,13.6837121 16.5291603,12.8626071 16.0114142,12.2043275 C15.4936682,11.5460478 14.7653829,11.043684 13.8265366,10.697221 C13.5642119,10.6002114 13.312246,10.5101324 13.0706311,10.4269813 C12.8290163,10.3438302 12.5908566,10.2641449 12.3561451,10.187923 C12.1214335,10.1117012 11.8832739,10.0320159 11.641659,9.94886475 C11.4000442,9.86571364 11.141175,9.76870546 10.8650438,9.65783731 C10.1609091,9.39452544 9.58794532,9.0411385 9.14613531,8.5976659 C8.70432531,8.15419328 8.48342362,7.56521505 8.48342362,6.83071354 C8.48342362,6.35952388 8.56281017,5.94030996 8.72158564,5.57305921 C8.88036111,5.20580845 9.10126279,4.89746102 9.38429733,4.64800768 C9.66733186,4.39855433 9.99868439,4.21146714 10.3783649,4.08674047 C10.7580453,3.96201379 11.1618812,3.89965139 11.5898847,3.89965139 C12.1283406,3.89965139 12.6184662,4.01051787 13.0602762,4.23225419 C13.5020862,4.45399049 13.8955674,4.74155045 14.2407314,5.09494269 C14.5858955,5.44833493 14.8896353,5.85022595 15.15196,6.30062782 C15.4142848,6.7510297 15.6282833,7.20488939 15.7939619,7.66222053 L16.0217691,7.66222053 L16.0217691,3.81650069 L15.7939619,3.81650069 C15.6835095,3.98280292 15.5627039,4.14910266 15.4315415,4.31540489 C15.3003792,4.48170711 15.223412,4.56190964 15.1726698,4.56485698 C15.1219275,4.56780431 15.0794766,4.51288832 14.9345077,4.40894942 C14.7895388,4.30501052 14.5755403,4.19067946 14.2925058,4.06595279 C14.0094712,3.94122612 13.6470544,3.82689504 13.2052444,3.72295615 C12.8713369,3.64440207 12.1615446,3.46444791 11.485085,3.38946905 C11.240189,3.36232475 11.0147581,3.34724088 10.6735638,3.34724088 C9.86588585,3.34724088 9.59139473,3.34724088 8.72158564,3.34724088 C7.85177654,3.34724088 7.67574603,3.36263466 7.22012946,3.72295615 C6.7645129,4.08327765 7.31332464,5.43793662 7.04409667,5.97841887 C6.77486869,6.51890111 6.64025673,7.16331259 6.64025673,7.91167263 C6.64025673,8.35514523 6.71619168,8.77435915 6.86806387,9.16932695 C7.01993606,9.56429474 7.22012822,9.92461084 7.46864635,10.250286 C7.71716447,10.5759612 8.00709794,10.8600566 8.33845544,11.1025807 C8.66981295,11.3451048 9.01497183,11.5356566 9.37394245,11.6742418 C9.6914934,11.7989684 9.96416892,11.8994412 10.1919772,11.975663 C10.4197855,12.0518849 10.6406872,12.1281056 10.8546889,12.2043275 C11.0686906,12.2805493 11.2999471,12.3602346 11.5484652,12.4433857 C11.7969833,12.5265368 12.0869168,12.6304742 12.4182743,12.7552008 C12.7496318,12.8799275 13.0602748,13.0185106 13.3502126,13.1709543 C13.6401504,13.323398 13.8921163,13.5070207 14.1061181,13.7218277 C14.3201199,13.9366348 14.4892478,14.1895489 14.6135067,14.4805779 C14.7377658,14.7716068 14.7998944,15.1111354 14.7998944,15.4991739 C14.7998944,16.4554117 14.1924119,17.0927483 13.55731,17.6540184 C12.9222081,18.2152884 12.2178226,18.5537024 10.5901873,18.8239422 C10.2363671,18.8826877 9.47946145,19.0231524 8.62030603,19.0933728 C8.27898029,19.1212701 7.11937173,19.052997 6.78129122,19.0195327 C6.26838492,18.9687637 6.07285621,18.9159424 5.26590208,18.7530636 C3.92704678,18.4828239 2.24358883,17.5744373 1.98816742,17.3388425 C1.73274602,17.1032476 1.26007821,17.2187835 1.03226993,16.9069669 C0.804461649,16.5951501 0.801557659,16.5933533 0.582348227,16.1401672 C0.363138794,15.686981 0.35527506,15.6758121 0.231015997,15.301632 L0.092611759,15.301632 L0.092611759,18.9083526 L0.266063194,18.9083526 C0.348573411,18.7424398 0.364869416,18.4966756 0.552611462,18.4111735 C0.740353507,18.3256714 0.935458339,18.370077 1.10091052,18.430236 C1.26636271,18.4903951 1.42582472,18.5328613 1.54685572,18.5747809 C1.82598214,18.6714575 2.12519512,18.744566 2.51486229,18.856829 C3.10805804,19.0277285 3.82322606,19.2155251 4.82167185,19.3196018 C5.82011765,19.4236786 6.86806387,19.5158142 7.97244126,19.5333199 C8.57494356,19.5428704 9.26953622,19.5592638 9.92337459,19.4970002 C10.4680118,19.4451356 11.0719126,19.3686339 11.3751262,19.3196018 C11.9124543,19.2327118 11.9371462,19.2165263 12.5497195,19.0933728 C12.83863,19.0352893 13.566318,18.7860481 13.7734154,18.7159506 C13.9545946,18.6546257 14.2398198,18.5131619 14.3810074,18.430236 C14.7140732,18.2346115 14.9223452,18.076458 15.2658635,17.8066058 C15.7421899,17.4324259 16.1149617,16.9820307 16.3841895,16.4554069 C16.6534175,15.9287832 16.7880295,15.3328758 16.7880295,14.6676669 Z" id="S"></path>
                            <path d="M3.90403526,1.86181108 L12.5019832,18.5671023 L13.5790888,18.5671023 L13.5790888,4.41223721 C13.5790888,1.40273438 14.5768287,0.714119318 15.9940728,0.612102273 L15.9940728,0 L11.084739,0 L11.084739,0.612102273 C11.8594992,0.663110795 12.2752241,0.867144887 12.5208798,1.32622159 C12.7476389,1.73428977 12.8043286,2.47391336 12.8043286,4.76929687 L12.8043286,15.2515482 L4.92445106,0 L0.0498869947,0 L0.0498869947,0.612102273 C1.46713116,0.688615057 3.12927512,0.943657671 3.12927512,3.44307529 L3.12927512,13.7212926 C3.12927512,15.6851208 3.01589559,16.6797869 2.75134335,17.1643679 C2.50568769,17.6489489 2.10885932,17.852983 1.39078895,17.852983 L1.39078895,18.4905895 L5.5480385,18.4905895 L5.5480385,17.852983 C4.79217494,17.8274787 4.39534657,17.6234446 4.16858751,17.1643679 C3.96072503,16.7562997 3.90403526,16.195206 3.90403526,14.154865 L3.90403526,1.86181108 Z" id="N"></path>
                        </g>
                    </g>
                </g>
                <g id="Group" transform="translate(237.000000, 188.000000)">
                    <path d="M58.5,26.2222222 L72.5,4.88888889" id="Line-2" stroke="#291E2E" stroke-linecap="round"></path>
                    <path d="M58.5,28 L72.5,49.5" id="Line-3" stroke="#291E2E" stroke-linecap="round"></path>
                    <circle id="Oval-3" fill="#291E2E" cx="85" cy="27" r="1"></circle>
                    <path d="M56.5,28 L79.5,13.5" id="Line-4" stroke="#291E2E" stroke-linecap="round"></path>
                    <path d="M56.5,26.2222222 L79.7054389,39.845907" id="Line-5" stroke="#291E2E" stroke-linecap="round"></path>
                    <path d="M60,27.1111111 L82.5,27.1111111" id="Line-6" stroke="#291E2E" stroke-linecap="round"></path>
                    <circle id="Oval" fill="#291E2E" cx="58" cy="27" r="3"></circle>
                    <circle id="Oval-3" fill="#291E2E" cx="74" cy="52" r="1"></circle>
                    <circle id="Oval-3" fill="#291E2E" cx="82" cy="41" r="1"></circle>
                    <circle id="Oval-3" fill="#291E2E" cx="82" cy="12" r="1"></circle>
                    <circle id="Oval-3" fill="#291E2E" cx="74" cy="3" r="1"></circle>
                    <circle id="Oval" fill="#291E2E" cx="2" cy="27" r="2"></circle>
                    <path d="M4.5,27 L55.5,27" id="Line" stroke="#291E2E" stroke-width="2" stroke-linecap="square"></path>
                    <g id="Group-3" transform="translate(75.000000, 0.000000)" stroke="#291E2E" stroke-linecap="round">
                        <path d="M1.68450553,55.0345046 C4.2051957,52.7139475 5.93000813,50.871136 7.50193028,48.351473 C10.3592587,43.7714086 13.4967765,36.0597387 13.4967765,27.4716573 C13.4967765,18.1914649 10.7383158,10.0566466 6.59953011,5.5172218 C6.08667402,4.95472065 4.03267185,2.50733142 0.639418057,0.230877345" id="Oval-2" stroke-width="3"></path>
                        <path d="M22.2262974,38 C19.6263573,38 17.8249201,38 16.8219859,38 C15.8193768,38 14.6227121,38.5570612 13.2319919,39.6711837 L13.9025922,36.6228954 L16.8219859,36.6228954 L14.3098587,34.6657505 L15.9857256,34.6657505 L13.9025922,31.1362493 L13.9025922,24.5061539 C16.0166625,33.5020513 18.2836199,38 20.7034643,38 C23.1233087,38 121.388821,38 315.5,38" id="Line-7" stroke-width="2"></path>
                    </g>
                </g>
            </g>
        </g>
    </g>
</svg>