<?xml version="1.0" encoding="UTF-8"?>
<svg width="1627px" height="1399px" viewBox="0 0 1627 1399" version="1.1" xmlns="http://www.w3.org/2000/svg" xmlns:xlink="http://www.w3.org/1999/xlink">
    <!-- Generator: Sketch 46.2 (44496) - http://www.bohemiancoding.com/sketch -->
    <title>Light</title>
    <desc>Created with Sketch.</desc>
    <defs></defs>
    <g id="Page-1" stroke="none" stroke-width="1" fill="none" fill-rule="evenodd">
        <g id="Light">
            <path d="M913.603942,497.509531 C907.89614,515.610333 904.818163,534.878188 904.818163,554.864943 C904.818163,605.606267 924.65646,651.714107 957,685.855412" id="Oval-2" stroke="#25282B" stroke-width="3" transform="translate(930.909082, 591.682472) scale(-1, -1) translate(-930.909082, -591.682472) "></path>
            <path d="M835.660305,819 C827.291271,721.520681 745.513441,645.011466 645.865926,645.011466 C621.469723,645.011466 598.144616,649.597373 576.705621,657.954172" id="Oval-2" stroke="#25282B" stroke-width="3" transform="translate(706.182963, 732.005733) scale(-1, -1) translate(-706.182963, -732.005733) "></path>
            <path d="M630.960363,494.637139 C681.435647,492.964936 726.939338,471.656547 760.077166,438.106239" id="Oval-2" stroke="#25282B" stroke-width="3" transform="translate(695.518764, 466.371689) scale(-1, -1) translate(-695.518764, -466.371689) "></path>
            <path d="M767,742 C704.591823,742 654,691.408177 654,629 C654,566.591823 704.591823,516 767,516 C829.408177,516 880,566.591823 880,629 C880,691.408177 829.408177,742 767,742 Z M767,741 C828.855892,741 879,690.855892 879,629 C879,567.144108 828.855892,517 767,517 C705.144108,517 655,567.144108 655,629 C655,690.855892 705.144108,741 767,741 Z" id="Oval" fill-rule="nonzero"></path>
            <path d="M604.266941,470.737516 C564.494473,511.626368 540,567.452688 540,629 C540,635.440102 540.268186,641.817566 540.793998,648.121833 C546.329056,714.48483 580.411985,772.736803 630.726205,810.561172" id="Oval-3" stroke="#25282B" stroke-width="5"></path>
            <path d="M847.275633,841.397541 C911.753808,817.015342 962.223491,764.115182 983.2957,698.086043 C990.247701,676.302157 994,653.089277 994,629 C994,568.524986 970.351593,513.573353 931.797885,472.888206 C890.427248,429.230398 831.893624,402 767,402 C763.902737,402 760.819963,402.062031 757.752851,402.184917" id="Oval-3" stroke="#25282B" stroke-width="5"></path>
            <path d="M1000.42893,703.620507 C1007.9437,680.092968 1012,655.020184 1012,629 C1012,563.915364 986.621458,504.758203 945.220429,460.884574 C900.549479,413.545733 837.225127,384 767,384 C763.565716,384 760.147936,384.070661 756.748034,384.21061 C691.821414,386.883146 633.414709,414.823252 591.100635,458.458208 C548.329071,502.564935 522,562.707725 522,629 C522,636.452783 522.332772,643.827844 522.984268,651.111133" id="Oval-3" stroke="#25282B" stroke-width="2"></path>
            <path d="M621.122708,424.152832 C628.308509,431.430185 636.034873,438.17252 644.236663,444.314701 C676.469591,468.45339 716.045385,483.322815 759.010424,484.969357" id="Oval-3" stroke="#25282B" stroke-width="2" transform="translate(690.066566, 454.561094) scale(1, -1) translate(-690.066566, -454.561094) "></path>
            <path d="M962.487916,790.003296 C953.07116,760.238083 937.04429,733.411358 916.130233,711.246046 C895.300544,689.17015 869.623019,671.718136 840.799817,660.592161 C817.900831,651.752979 793.016379,646.90662 767,646.90662 C764.631905,646.90662 762.273189,646.946773 759.924495,647.026435 C716.654246,648.49407 676.785563,663.371656 644.343463,687.63418 C635.992625,693.879535 628.133862,700.746721 620.835823,708.167092 C588.36906,741.17807 566.999517,785.137061 562.771257,834" id="Oval-3" stroke="#25282B" stroke-width="2" transform="translate(762.629586, 740.453310) scale(1, -1) translate(-762.629586, -740.453310) "></path>
            <path d="M764.217109,772.951114 C842.267807,770.938482 904.921326,707.035998 904.921326,628.5 C904.921326,589.817009 889.721171,554.684205 864.967809,528.748537 C838.65362,501.177489 801.543482,484 760.421326,484 C758.897991,484 757.380161,484.023572 755.868181,484.070372 C692.524293,486.031018 639.448862,528.759352 622,586.89726" id="Oval-4" stroke="#25282B" stroke-width="7" transform="translate(763.460663, 628.475557) scale(-1, -1) translate(-763.460663, -628.475557) "></path>
            <path d="M876.212361,944 C823.827846,905.291903 759.039168,882.408165 688.905706,882.408165 C650.325887,882.408165 613.363403,889.332798 579.193345,902.006974" id="Oval-5" stroke="#25282B" stroke-width="3" transform="translate(727.702853, 913.204082) scale(-1, -1) translate(-727.702853, -913.204082) "></path>
            <path d="M538.131706,410.810938 C622.679416,407.32166 698.639409,370.559561 753.263699,313.272626" id="Oval-5" stroke="#25282B" stroke-width="3" transform="translate(645.697703, 362.041782) scale(-1, -1) translate(-645.697703, -362.041782) "></path>
            <path d="M922.5,1057.5 L806.103711,723.626434" id="Line" stroke="#25282B" stroke-width="5" stroke-linecap="square"></path>
            <polyline id="Line" stroke="#25282B" stroke-width="2" stroke-linecap="square" points="518.170176 965.080945 708.543323 704.830949 715.795654 694.916634"></polyline>
            <path d="M387.659375,667.884111 L684.106431,631.873188" id="Line" stroke="#25282B" stroke-width="4" stroke-linecap="square"></path>
            <path d="M1167.84308,764.192266 L875.094262,659.061475" id="Line" stroke="#25282B" stroke-width="4" stroke-linecap="square"></path>
            <path d="M1004.94433,406.259306 L854.024878,544.81675" id="Line" stroke="#25282B" stroke-width="5" stroke-linecap="square"></path>
            <path d="M416.367311,300.102266 L703.925477,561.079424" id="Line" stroke="#25282B" stroke-width="7" stroke-linecap="square"></path>
            <path d="M749.088575,251.161647 L766.470073,551.797181" id="Line" stroke="#25282B" stroke-width="4" stroke-linecap="square"></path>
            <g id="Initials" transform="translate(732.000000, 565.000000)" fill="#25282B">
                <path d="M0.76094451,133.398571 L0.76094451,119.740612 C11.1237826,125.250517 19.8135659,128.005429 26.8305549,128.005429 C30.5016949,128.005429 33.8474938,127.293354 36.8680519,125.869184 C39.8886101,124.445013 42.2934031,122.040303 44.082503,118.65498 C45.8716028,115.269657 46.7661393,108.043851 46.7661393,96.9773469 L46.7661393,35.6215918 L8.59693034,35.6215918 L8.59693034,24.4150612 L61.1950413,24.4150612 L61.1950413,97.327551 C61.1950413,109.234549 59.8474279,117.791117 57.1521606,122.99751 C54.4568933,128.203904 50.6812521,132.207864 45.825124,135.00951 C40.9689958,137.811157 38.5526235,137.616338 30.9779929,137.616338 C24.8383631,137.616338 21.4968261,137.585605 14.9957014,135.484325 C14.2499342,135.243279 10.3983799,135.375172 9.24919615,135.00951 C8.72365261,134.842286 6.46321314,133.910769 6.06261859,133.829228 C5.66202405,133.747687 4.34653306,134.571385 4.11744236,134.65413 C3.88835165,134.736875 1.86957017,133.867909 0.76094451,133.398571 Z" id="J"></path>
                <path d="M122.703863,107.318984 C122.703863,100.119677 120.811786,94.1118949 117.027575,89.2954572 C113.243364,84.4790195 107.92032,80.8033721 101.058284,78.2684049 C99.1409507,77.5586141 97.299329,76.8995325 95.5333638,76.2911404 C93.7673987,75.6827482 92.0266877,75.0997145 90.3111787,74.5420217 C88.5956697,73.9843289 86.8549588,73.4012952 85.0889936,72.7929031 C83.3230285,72.184511 81.4309514,71.4747308 79.4127055,70.6635413 C74.2661785,68.7369662 70.0783811,66.1513384 66.8491877,62.9065804 C63.6199943,59.6618223 62.0054218,55.3524427 62.0054218,49.9783122 C62.0054218,46.5307567 62.5856588,43.4634924 63.7461502,40.7764272 C64.9066416,38.0893619 66.521214,35.8332749 68.5899161,34.0080985 C70.6586181,32.1829221 73.0804768,30.8140604 75.8555649,29.9014722 C78.630653,28.988884 81.5822933,28.5325967 84.7105744,28.5325967 C88.6461539,28.5325967 92.2284866,29.343774 95.45768,30.9661531 C98.6868734,32.5885321 101.562831,34.6925233 104.085638,37.2781899 C106.608445,39.8638565 108.828482,42.8043743 110.745816,46.0998317 C112.66315,49.3952891 114.227267,52.7160463 115.438214,56.0622031 L117.103259,56.0622031 L117.103259,27.9242076 L115.438214,27.9242076 C114.630916,29.1409919 113.747947,30.3577579 112.78928,31.5745422 C111.830613,32.7913264 111.268059,33.3781446 110.897184,33.3997094 C110.526308,33.4212742 110.216034,33.0194701 109.156455,32.2589799 C108.096876,31.4984897 106.532759,30.6619631 104.464057,29.7493749 C102.395355,28.8367867 99.7464472,28.00026 96.5172538,27.2397699 C94.0767205,26.6650129 88.8888419,25.3483415 83.9445925,24.7997433 C82.1546458,24.6011365 80.5069687,24.4907723 78.0131769,24.4907723 C72.109851,24.4907723 70.1035929,24.4907723 63.7461502,24.4907723 C57.3887074,24.4907723 56.1020988,24.603404 52.7719931,27.2397699 C49.4418874,29.8761358 53.4531575,39.7877751 51.4853678,43.742324 C49.517578,47.6968728 48.5336979,52.4118412 48.5336979,57.8873704 C48.5336979,61.1321284 49.0887072,64.1993927 50.1987424,67.0892554 C51.3087777,69.979118 52.771984,72.6154444 54.5884053,74.9983135 C56.4048266,77.3811827 58.523953,79.4598247 60.945848,81.2343017 C63.3677431,83.0087788 65.8905126,84.4029898 68.5142322,85.4169767 C70.835215,86.3295649 72.8282029,87.0646944 74.4932557,87.6223872 C76.1583086,88.18008 77.7728811,88.7377644 79.3370216,89.2954572 C80.9011622,89.85315 82.5914178,90.4361837 84.4078391,91.0445758 C86.2242603,91.652968 88.3433867,92.4134467 90.7652818,93.3260349 C93.1871768,94.2386231 95.4576694,95.2525948 97.5768276,96.3679804 C99.6959857,97.4833659 101.537607,98.8268784 103.101748,100.398558 C104.665889,101.970238 105.902046,103.820736 106.810256,105.950109 C107.718467,108.079481 108.172565,110.563712 108.172565,113.402875 C108.172565,120.399384 103.73247,125.062588 99.0905044,129.169235 C94.4485389,133.275882 89.3001788,135.751957 77.4037772,137.729222 C74.8177018,138.159045 69.2854715,139.186784 63.0058966,139.700566 C60.5111436,139.904682 52.0355539,139.405148 49.5645203,139.1603 C45.8156834,138.788838 44.3865623,138.40236 38.4885271,137.210624 C28.7028213,135.23336 16.3984115,128.586964 14.5315341,126.863186 C12.6646567,125.139408 9.20992334,125.98475 7.54487049,123.70328 C5.87981764,121.421809 5.85859235,121.408662 4.25638858,118.092833 C2.65418481,114.777004 2.5967087,114.695284 1.68849806,111.957519 L0.676900204,111.957519 L0.676900204,138.346828 L1.94465835,138.346828 C2.54772629,137.132893 2.66683394,135.334709 4.03904229,134.709115 C5.41125064,134.083522 6.83727366,134.408424 8.04656521,134.84859 C9.25585676,135.288756 10.4213661,135.599469 11.3059828,135.906182 C13.3461204,136.613536 15.5330708,137.14845 18.3811518,137.969845 C22.716825,139.220266 27.9439947,140.594318 35.2416442,141.355817 C42.5392938,142.117316 50.1987424,142.791445 58.270647,142.919529 C62.6743419,142.989407 67.7511261,143.109353 72.5300368,142.653788 C76.5107955,142.27431 80.9247117,141.71457 83.1409027,141.355817 C87.0682386,140.720068 87.2487122,140.601644 91.7260157,139.700566 C93.8376658,139.275586 99.1563442,137.451962 100.670021,136.939079 C101.994261,136.490383 104.078975,135.455334 105.110916,134.84859 C107.545297,133.417263 109.067559,132.260101 111.578338,130.285672 C115.059812,127.547908 117.784404,124.2525 119.752193,120.399349 C121.719983,116.546199 122.703863,112.186121 122.703863,107.318984 Z" id="S"></path>
                <path d="M28.5346299,13.6223214 L91.377111,135.85 L99.2496856,135.85 L99.2496856,32.2830357 C99.2496856,10.2633929 106.542176,5.225 116.900826,4.47857143 L116.900826,0 L81.0184603,0 L81.0184603,4.47857143 C86.6811894,4.85178571 89.7197269,6.34464286 91.5152264,9.70357143 C93.1726105,12.6892857 93.5869565,18.1008929 93.5869565,34.8955357 L93.5869565,111.591071 L35.9928584,0 L0.364624506,0 L0.364624506,4.47857143 C10.7232752,5.03839286 22.8719008,6.90446429 22.8719008,25.1919643 L22.8719008,100.394643 C22.8719008,114.763393 22.0432088,122.041071 20.109594,125.586607 C18.3140945,129.132143 15.4136723,130.625 10.1652893,130.625 L10.1652893,135.290179 L40.5506648,135.290179 L40.5506648,130.625 C35.026051,130.438393 32.1256288,128.945536 30.4682447,125.586607 C28.9489759,122.600893 28.5346299,118.495536 28.5346299,103.566964 L28.5346299,13.6223214 Z" id="N"></path>
            </g>
        </g>
    </g>
</svg>